# AST/ASF file generated using VICON BodyLanguage
# -----------------------------------------------
:version 1.10
:name VICON
:units
  mass 1.0
  length 0.45
  angle deg
:documentation
   .ast/.asf automatically generated from VICON data using
   VICON BodyBuilder and BodyLanguage model FoxedUp or BRILLIANT.MOD
:root
   order TX TY TZ RX RY RZ
   axis XYZ
   position 0 0 0  
   orientation 0 0 0 
:bonedata
  begin
     id 1 
     name lhipjoint
     direction 0.662698 -0.695252 0.27831 
     length 2.53073 
     axis 0 0 0  XYZ
  end
  begin
     id 2 
     name lfemur
     direction 0.34202 -0.939693 0  
     length 7.16147  
     axis 0 0 20  XYZ
    dof rx ry rz
    limits (-160.0 20.0)
           (-70.0 70.0)
           (-60.0 70.0)
  end
  begin
     id 3 
     name ltibia
     direction 0.34202 -0.939693 0   
     length 7.63967   
     axis 0 0 20   XYZ
    dof rx
    limits (-10.0 170.0)
  end
  begin
     id 4 
     name lfoot
     direction 0.0938457 -0.257721 0.961651   
     length 1.89793   
     axis -90 7.62852e-016 20   XYZ
    dof rx rz
    limits (-45.0 90.0)
           (-70.0 20.0)
  end
  begin
     id 5 
     name ltoes
     direction -0.00116841 -0.0030592 0.999995   
     length 0.955649   
     axis -90 7.62852e-016 20   XYZ
    dof rx
    limits (-90.0 20.0)
  end
  begin
     id 6 
     name rhipjoint
     direction -0.649445 -0.705948 0.282592   
     length 2.49238  
     axis 0 0 0  XYZ 
  end
  begin
     id 7 
     name rfemur
     direction -0.34202 -0.939693 0   
     length 6.90728   
     axis 0 0 -20   XYZ
    dof rx ry rz
    limits (-160.0 20.0)
           (-70.0 70.0)
           (-70.0 60.0)
  end
  begin
     id 8 
     name rtibia
     direction -0.34202 -0.939693 0   
     length 7.72868   
     axis 0 0 -20   XYZ
    dof rx
    limits (-10.0 170.0)
 end
 begin
     id 9 
     name rfoot
     direction -0.0920068 -0.252865 0.963117   
     length 1.97476  
     axis -90 -7.62852e-016 -20   XYZ
    dof rx rz
    limits (-45.0 90.0)
           (-20.0 70.0)
  end
  begin
     id 10 
     name rtoes
     direction 0.000391322 0.00230649 0.999997   
     length 0.992641   
     axis -90 -7.62852e-016 -20   XYZ
    dof rx
    limits (-90.0 20.0)
  end
  begin
     id 11 
     name lowerback
     direction -0.00875327 0.998321 -0.0572635   
     length 2.20024   
     axis 0 0 0   XYZ
    dof rx ry rz
    limits (-20.0 45.0)
           (-30.0 30.0)
           (-30.0 30.0)
  end
  begin
     id 12 
     name upperback
     direction 0.00753931 0.999972 -0.000360425   
     length 2.20538   
     axis 0 0 0   XYZ
    dof rx ry rz
    limits (-20.0 45.0)
           (-30.0 30.0)
           (-30.0 30.0)
  end
  begin
     id 13 
     name thorax
     direction 0.0117767 0.999601 0.0256663   
     length 2.21508   
     axis 0 0 0   XYZ
    dof rx ry rz
    limits (-20.0 45.0)
           (-30.0 30.0)
           (-30.0 30.0)
  end
  begin
     id 14 
     name lowerneck
     direction 0.060228 0.994909 0.0807986   
     length 1.7607   
     axis 0 0 0   XYZ
    dof rx ry rz
    limits (-20.0 45.0)
           (-30.0 30.0)
           (-30.0 30.0)
  end
  begin
     id 15 
     name upperneck
     direction -0.0563647 0.959594 -0.275685   
     length 1.75612   
     axis 0 0 0   XYZ
    dof rx ry rz
    limits (-20.0 45.0)
           (-30.0 30.0)
           (-30.0 30.0)
  end
  begin
     id 16
     name head
     direction -0.0161544 0.99458 -0.102714  
     length 1.79288  
     axis 0 0 0   XYZ
    dof rx ry rz
    limits (-20.0 45.0)
           (-30.0 30.0)
           (-30.0 30.0)
  end
  begin
     id 17 
     name lclavicle
     direction 0.93913 0.332189 -0.087669  
     length 3.52087  
     axis 0 0 0   XYZ
    dof ry rz
    limits (-20.0 10.0)
           (0.0 20.0)
  end
  begin
     id 18 
     name lhumerus
     direction 1 -4.48974e-011 -2.70836e-027   
     length 5.35289   
     axis -180 -30 -90   XYZ
    dof rx ry rz
    limits (-60.0 90.0)
           (-90.0 90.0)
           (-90.0 90.0)
  end
  begin
     id 19
     name lradius
     direction 1 -4.48961e-011 -9.76021e-027   
     length 3.27727   
     axis -180 -30 -90   XYZ
    dof rx
    limits (-10.0 170.0)
  end
  begin
     id 20
     name lwrist
     direction 1 -4.49103e-011 -2.23668e-026   
     length 1.63864   
     axis 1.44924e-014 90 90   XYZ
    dof ry
    limits (-180.0 0.0)
 end
  begin
     id 21 
     name lhand
     direction 1 3.0697e-005 0.000161777   
     length 0.54443   
     axis 2.85318e-014 90 90   XYZ
    dof rx rz
    limits (-90.0 90.0)
           (-45.0 45.0)
  end
  begin
     id 22 
     name lfingers
     direction 1 -4.49027e-011 -8.9447e-026   
     length 0.438912   
     axis 5.70628e-014 90 90   XYZ
    dof rx
    limits (0.0 90.0)
  end
  begin
     id 23
     name lthumb
     direction 0.707058 2.6516e-005 0.707156   
     length 0.630274   
     axis -90 45 -3.53137e-014   XYZ
    dof rx rz
    limits (-45.0 45.0)
           (-45.0 45.0)
  end
  begin
     id 24 
     name rclavicle
     direction -0.95274 0.284984 -0.105215   
     length 3.43401  
     axis 0 0 0   XYZ 
    dof ry rz
    limits (-10.0 20.0)
           (-20.0 0.0)
  end
  begin
     id 25 
     name rhumerus
     direction -0.999999 -0.000575019 -0.00106829  
     length 5.52077   
     axis -180 30 90   XYZ
    dof rx ry rz
    limits (-90.0 60.0)
           (-90.0 90.0)
           (-90.0 90.0)
  end
  begin
     id 26 
     name rradius
     direction -1 -4.4879e-011 -6.35415e-027   
     length 3.32364   
     axis -180 30 90   XYZ
    dof rx
    limits (-10.0 170.0)
  end
  begin
     id 27 
     name rwrist
     direction -1 -4.49048e-011 -9.98542e-027   
     length 1.66182   
     axis 6.32482e-015 -90 -90   XYZ
    dof ry
    limits (-180.0 0.0)
  end
  begin
     id 28
     name rhand
     direction -1 -4.48978e-011 -1.99771e-026   
     length 0.732235   
     axis 1.27479e-014 -90 -90   XYZ
    dof rx rz
    limits (-90.0 90.0)
           (-45.0 45.0)
  end
  begin
     id 29
     name rfingers
     direction -1 -4.49144e-011 -3.99245e-026   
     length 0.590347   
     axis 2.5496e-014 -90 -90   XYZ
    dof rx
    limits (0.0 90.0)
  end
  begin
     id 30
     name rthumb
     direction -0.707107 -6.35121e-011 0.707107   
     length 0.847624   
     axis -90 -45 -2.82974e-014   XYZ
    dof rx rz
    limits (-45.0 45.0)
           (-45.0 45.0)
  end
:hierarchy
  begin
    root lhipjoint rhipjoint lowerback
    lhipjoint lfemur
    lfemur ltibia
    ltibia lfoot
    lfoot ltoes
    rhipjoint rfemur
    rfemur rtibia
    rtibia rfoot
    rfoot rtoes
    lowerback upperback
    upperback thorax
    thorax lowerneck lclavicle rclavicle
    lowerneck upperneck
    upperneck head
    lclavicle lhumerus
    lhumerus lradius
    lradius lwrist
    lwrist lhand lthumb
    lhand lfingers
    rclavicle rhumerus
    rhumerus rradius
    rradius rwrist
    rwrist rhand rthumb
    rhand rfingers
  end

#!OML:ASF G:\Work\Work\Patient Classification 1\Elijah\terrain1\Elijah.ASF
:FULLY-SPECIFIED
:DEGREES
332
root 15.8576 22.191 21.7836 5.02373 0.0628021 5.02796
lowerback 7.22925 0.0867947 -9.33841
upperback -0.467718 -0.828427 -2.93058
thorax -4.47966 -0.222867 2.26254
lowerneck -18.2938 11.1612 12.228
upperneck 12.4901 15.6265 -18.7504
head 9.54273 6.3151 -6.09509
rclavicle -7.95139e-015 1.03368e-014
rhumerus -43.9153 -0.770287 -83.3756
rradius 34.5813
rwrist -0.384524
rhand -13.7903 21.0055
rfingers 7.12502
rthumb 12.3313 -8.61087
lclavicle -7.95139e-015 1.03368e-014
lhumerus -32.3073 2.44833 80.829
lradius 53.2559
lwrist 11.0522
lhand -19.1234 25.6293
lfingers 7.12502
lthumb 7.18603 55.4873
rfemur -57.423 -18.3552 26.8315
rtibia 81.0908
rfoot 0.314269 -0.989966
rtoes -20.7391
lfemur -4.17263 -5.36525 -28.9955
ltibia 29.3324
lfoot -15.0852 -7.73069
ltoes -11.1056
333
root 15.7995 22.1693 21.9055 5.22484 -0.568121 4.5427
lowerback 5.99168 0.276356 -9.49428
upperback 0.198327 -0.3705 -2.66215
thorax -3.12541 -0.0639559 2.58149
lowerneck -18.2938 11.1612 12.228
upperneck 12.4901 15.6265 -18.7504
head 9.54273 6.3151 -6.09509
rclavicle 9.74045e-015 1.90833e-014
rhumerus -42.5749 -1.05594 -83.2368
rradius 33.5165
rwrist -0.222383
rhand -13.9559 21.3797
rfingers 7.12502
rthumb 12.1717 -8.24617
lclavicle 9.74045e-015 1.90833e-014
lhumerus -31.2781 2.72151 80.9579
lradius 52.6903
lwrist 10.7881
lhand -18.925 25.9686
lfingers 7.12502
lthumb 7.37754 55.82
rfemur -57.413 -16.8981 27.8274
rtibia 78.5946
rfoot 0.443875 -1.98557
rtoes -20.6741
lfemur -4.03514 -5.14304 -28.3224
ltibia 29.1869
lfoot -15.196 -7.51937
ltoes -8.65593
334
root 15.7952 22.1505 22.0234 5.22767 -0.175081 4.67541
lowerback 6.91656 0.276493 -9.34981
upperback -0.639216 -0.54247 -2.71483
thorax -4.5124 -0.0731412 2.46213
lowerneck -18.2938 11.1612 12.228
upperneck 12.4901 15.6265 -18.7504
head 9.54273 6.3151 -6.09509
rclavicle -9.64106e-015 -4.77083e-015
rhumerus -44.1534 -1.31846 -82.9456
rradius 32.933
rwrist 0.0379721
rhand -14.1215 21.848
rfingers 7.12502
rthumb 12.012 -7.78731
lclavicle -9.64106e-015 -4.77083e-015
lhumerus -32.8408 2.25952 81.0614
lradius 52.2323
lwrist 10.6786
lhand -18.9048 25.8485
lfingers 7.12502
lthumb 7.39701 55.6992
rfemur -57.1641 -17.3485 27.9356
rtibia 76.1594
rfoot 0.453449 -1.94897
rtoes -21.9722
lfemur -3.51682 -5.36816 -28.4504
ltibia 29.126
lfoot -15.2566 -7.4909
ltoes -8.69616
335
root 15.8118 22.1348 22.137 5.06823 0.616415 4.94933
lowerback 6.56945 0.189699 -8.73569
upperback -0.499223 -0.568311 -3.05319
thorax -4.17158 -0.120519 1.77126
lowerneck -18.2938 11.1612 12.228
upperneck 12.4901 15.6265 -18.7504
head 9.54273 6.3151 -6.09509
rclavicle 1.03368e-014 -9.54166e-015
rhumerus -44.5366 -2.18225 -82.7266
rradius 32.4507
rwrist 0.352632
rhand -13.9644 21.6381
rfingers 7.12502
rthumb 12.1634 -7.9883
lclavicle 1.03368e-014 -9.54166e-015
lhumerus -32.8524 1.60551 81.159
lradius 51.5407
lwrist 10.3442
lhand -18.8625 25.1034
lfingers 7.12502
lthumb 7.43785 54.9527
rfemur -56.6946 -18.5828 27.7871
rtibia 73.7655
rfoot 0.521931 -1.58738
rtoes -23.2294
lfemur -2.52608 -5.73486 -28.811
ltibia 28.6706
lfoot -15.3359 -7.58945
ltoes -9.68464
336
root 15.7528 22.1081 22.2532 5.3073 -0.0359104 4.68247
lowerback 7.09764 0.525733 -9.05351
upperback -1.16675 -0.256168 -2.86334
thorax -5.20686 0.0986598 2.1069
lowerneck -15.7487 10.4709 13.6751
upperneck 15.2061 14.6291 -17.0657
head 9.77619 6.12966 -6.05427
rclavicle 4.27387e-015 1.66979e-014
rhumerus -45.6071 -2.37711 -82.4585
rradius 32.1635
rwrist 0.692027
rhand -13.5907 21.0814
rfingers 7.12502
rthumb 12.5237 -8.52327
lclavicle 4.27387e-015 1.66979e-014
lhumerus -33.7073 1.56931 81.1909
lradius 50.8745
lwrist 10.0313
lhand -18.4586 25.2757
lfingers 7.12502
lthumb 7.82773 55.1108
rfemur -56.5612 -17.0426 28.3924
rtibia 71.139
rfoot 0.896885 -2.46993
rtoes -23.4332
lfemur -2.19204 -5.33497 -28.3798
ltibia 28.0927
lfoot -15.5816 -7.37573
ltoes -10.8451
337
root 15.7842 22.0804 22.4076 5.00158 0.887471 6.09308
lowerback 6.5372 0.213594 -9.72843
upperback -0.361435 -0.608328 -3.28133
thorax -4.00151 -0.131162 2.08535
lowerneck -16.732 10.5541 12.9961
upperneck 14.9236 14.6716 -16.6945
head 9.7769 6.09837 -5.76187
rclavicle -7.95139e-015 -2.62396e-014
rhumerus -44.6045 -2.70351 -82.2525
rradius 31.4194
rwrist 1.02975
rhand -13.4403 20.8726
rfingers 7.12502
rthumb 12.6687 -8.72318
lclavicle -7.95139e-015 -2.62396e-014
lhumerus -32.7715 1.99125 81.3122
lradius 50.0801
lwrist 9.85007
lhand -18.3049 26.0526
lfingers 7.12502
lthumb 7.97604 55.8822
rfemur -55.8628 -18.9195 26.7826
rtibia 68.8333
rfoot 1.23089 -1.55538
rtoes -23.6558
lfemur -0.668286 -5.71791 -30.0354
ltibia 27.339
lfoot -15.8161 -7.74191
ltoes -11.8714
338
root 15.7393 22.0501 22.5641 4.96061 0.600788 6.10141
lowerback 6.46601 0.345212 -10.1735
upperback -0.429559 -0.45858 -3.1244
thorax -4.04669 -0.0425153 2.47955
lowerneck -17.7817 10.5563 12.3766
upperneck 15.8181 14.7263 -16.1043
head 10.1838 6.06104 -5.42037
rclavicle -1.12313e-014 -3.26007e-014
rhumerus -44.8741 -2.75154 -82.0444
rradius 30.7079
rwrist 1.38531
rhand -13.7198 21.3191
rfingers 7.12502
rthumb 12.3993 -8.29312
lclavicle -1.12313e-014 -3.26007e-014
lhumerus -33.1433 2.24911 81.3969
lradius 49.3684
lwrist 9.69386
lhand -18.7473 25.4892
lfingers 7.12502
lthumb 7.54911 55.3345
rfemur -55.0464 -18.1276 26.7843
rtibia 66.0619
rfoot 1.81597 -1.8963
rtoes -23.3653
lfemur 0.159512 -5.46078 -29.9697
ltibia 26.9196
lfoot -16.2147 -7.56008
ltoes -13.0863
339
root 15.731 22.0212 22.6965 4.80754 0.905103 5.97682
lowerback 6.31145 0.21557 -9.89136
upperback -0.223173 -0.568738 -3.08333
thorax -3.72899 -0.121431 2.37823
lowerneck -16.6569 10.9188 13.6458
upperneck 14.9745 15.1672 -17.2197
head 9.97038 6.31864 -5.96734
rclavicle 2.68359e-015 2.38542e-014
rhumerus -44.7373 -2.79334 -81.9849
rradius 30.0007
rwrist 1.81194
rhand -13.7177 21.5693
rfingers 7.12502
rthumb 12.4013 -8.0428
lclavicle 2.68359e-015 2.38542e-014
lhumerus -33.0946 2.54521 81.3264
lradius 48.5539
lwrist 9.42327
lhand -19.0502 24.7516
lfingers 7.12502
lthumb 7.25672 54.6072
rfemur -54.0975 -18.2834 26.8304
rtibia 63.3342
rfoot 2.38146 -1.76348
rtoes -23.2259
lfemur 1.20069 -5.63947 -29.8441
ltibia 26.3755
lfoot -16.3764 -7.50654
ltoes -13.3781
340
root 15.7089 21.9925 22.817 5.01892 1.05314 5.71669
lowerback 5.58426 0.158512 -9.62758
upperback 0.130508 -0.497125 -2.95929
thorax -2.95451 -0.131098 2.35459
lowerneck -17.6239 10.9391 13.2056
upperneck 15.2852 15.183 -16.9438
head 10.1957 6.26399 -5.76613
rclavicle 7.25564e-015 3.18055e-014
rhumerus -44.062 -2.83335 -81.9212
rradius 29.3243
rwrist 1.98585
rhand -13.3337 21.3084
rfingers 7.12502
rthumb 12.7715 -8.28101
lclavicle 7.25564e-015 3.18055e-014
lhumerus -32.5456 2.79528 81.3706
lradius 47.7866
lwrist 9.0231
lhand -18.671 24.9882
lfingers 7.12502
lthumb 7.62273 54.8309
rfemur -53.4969 -17.8991 27.0968
rtibia 60.3794
rfoot 3.34184 -1.92628
rtoes -24.0905
lfemur 1.41902 -5.80296 -29.4833
ltibia 26.4081
lfoot -16.5483 -7.52495
ltoes -13.1133
341
root 15.6905 21.9577 22.9368 5.27014 1.16538 6.2307
lowerback 5.84452 0.251381 -10.0294
upperback -0.424594 -0.485634 -3.08427
thorax -3.6864 -0.0735612 2.44363
lowerneck -16.6828 10.7427 13.276
upperneck 15.3644 14.9851 -16.853
head 10.012 6.23546 -5.81613
rclavicle -1.74931e-014 1.66979e-014
rhumerus -45.1122 -2.96266 -81.6739
rradius 28.9101
rwrist 2.26714
rhand -13.0963 21.3066
rfingers 7.12502
rthumb 13.0004 -8.26829
lclavicle -1.74931e-014 1.66979e-014
lhumerus -33.4844 2.50345 81.4268
lradius 47.0351
lwrist 8.81406
lhand -18.2471 24.9359
lfingers 7.12502
lthumb 8.03189 54.7632
rfemur -53.0143 -17.621 26.4525
rtibia 57.4656
rfoot 4.66575 -1.91147
rtoes -25.3306
lfemur 1.47055 -5.91047 -29.9677
ltibia 26.6356
lfoot -16.6485 -7.74361
ltoes -12.132
342
root 15.6524 21.9209 23.0762 5.24623 0.968893 5.87238
lowerback 5.08375 0.359082 -9.8956
upperback -0.0140824 -0.19197 -2.88481
thorax -2.85767 0.0244394 2.55529
lowerneck -17.0161 10.8369 13.2955
upperneck 15.3417 15.1155 -17.0323
head 10.1083 6.26275 -5.84785
rclavicle 4.37326e-015 5.56597e-015
rhumerus -44.5985 -3.17281 -81.4717
rradius 28.1846
rwrist 2.71324
rhand -13.0522 21.5882
rfingers 7.12502
rthumb 13.0429 -7.98397
lclavicle 4.37326e-015 5.56597e-015
lhumerus -33.0483 2.73483 81.5088
lradius 46.1959
lwrist 8.54233
lhand -18.1872 24.2243
lfingers 7.12502
lthumb 8.08968 54.0495
rfemur -51.9093 -16.5599 26.5256
rtibia 54.5469
rfoot 5.6555 -2.63011
rtoes -25.2167
lfemur 2.0053 -5.75536 -29.4861
ltibia 26.5132
lfoot -16.7185 -7.9638
ltoes -10.346
